<svg width="32" height="32" viewBox="0 0 32 32" fill="none" xmlns="http://www.w3.org/2000/svg">
<path fill-rule="evenodd" clip-rule="evenodd" d="M16.0018 0C16.6573 0 17.1208 0.49722 17.4373 1.4912L20.3992 10.9999L30.1305 11.1591C31.1362 11.1592 31.7357 11.4781 31.939 12.1288C32.1424 12.7915 31.8368 13.4189 31.023 14.0224L23.1003 19.9862L26.1852 29.6659C26.5129 30.6599 26.3888 31.3463 25.8688 31.7606C25.3264 32.1743 24.6707 32.0437 23.8571 31.4286L16.0018 24.9999L8.13567 31.4286C7.3332 32.0438 6.66594 32.1747 6.13473 31.7606C5.61483 31.3464 5.49116 30.6599 5.80758 29.6659L8.8925 19.9862L0.969763 14.0224C0.167286 13.4189 -0.149269 12.7915 0.0654787 12.1288C0.268928 11.4781 0.856639 11.1592 1.86233 11.1591L11.5936 10.9999L14.5662 1.4912C14.8713 0.497371 15.3351 0.000150675 16.0018 0ZM15.0535 11.9999C14.3003 12 13.8719 12.45 13.8719 13.2363V17.9804H11.5907C11.2526 17.9804 11 18.2248 10.9999 18.5741C10.9999 18.8231 11.1071 19.0286 11.3212 19.2646L15.4178 23.7069C15.6276 23.9341 15.8243 23.9999 15.9998 23.9999C16.1753 23.9999 16.3727 23.9385 16.5867 23.7069L20.6492 19.2646C20.8887 19.0069 20.9997 18.8319 20.9997 18.5829C20.9997 18.2249 20.7216 17.9805 20.3835 17.9804H18.1062V13.2363C18.1062 12.45 17.6822 12 16.9246 11.9999H15.0535Z" fill="black" fill-opacity="0.85" style="fill:black;fill-opacity:0.85;"/>
</svg>
