<svg width="1024" height="1024" viewBox="0 0 1024 1024" fill="none" xmlns="http://www.w3.org/2000/svg">
<path fill-rule="evenodd" clip-rule="evenodd" d="M512.043 128C527.775 128 538.898 139.933 546.495 163.789L617.58 391.999L851.131 395.819C875.269 395.821 889.656 403.474 894.537 419.092C899.418 434.996 892.083 450.054 872.553 464.537L682.407 607.67L756.445 839.981C764.309 863.837 761.33 880.312 748.852 890.254C735.833 900.184 720.097 897.048 700.571 882.285L512.043 727.997L323.256 882.285C303.997 897.051 287.983 900.192 275.233 890.254C262.756 880.312 259.788 863.837 267.382 839.981L341.42 607.67L151.274 464.537C132.015 450.054 124.418 434.996 129.571 419.092C134.454 403.475 148.559 395.821 172.696 395.819L406.247 391.999L477.59 163.789C484.912 139.937 496.043 128.004 512.043 128ZM489.285 415.999C471.207 416.001 460.926 426.801 460.926 445.67V559.529H406.177C398.062 559.529 392 565.395 391.997 573.779C391.997 579.755 394.571 584.688 399.708 590.349L498.027 696.966C503.061 702.418 507.783 703.997 511.996 703.997C516.208 703.997 520.945 702.523 526.081 696.966L623.58 590.349C629.33 584.166 631.994 579.965 631.994 573.99C631.992 565.397 625.318 559.532 617.205 559.529H562.55V445.67C562.55 426.8 552.373 416 534.191 415.999H489.285Z" fill="black" fill-opacity="0.85" style="fill:black;fill-opacity:0.85;"/>
</svg>
